<svg width="72" height="72" viewBox="0 0 72 72" fill="none" xmlns="http://www.w3.org/2000/svg">
<rect width="72" height="72" rx="36" fill="#292929"/>
<path d="M31.75 40.6042H45.2083C45.9908 40.6042 46.625 39.9699 46.625 39.1875V24.3125C46.625 23.5301 45.9908 22.8958 45.2083 22.8958H31.75V40.6042Z" fill="white"/>
<path d="M30.3333 22.8958H29.625C27.2778 22.8958 25.375 24.7986 25.375 27.1458V44.8542C25.375 42.5069 27.2778 40.6042 29.625 40.6042H30.3333V22.8958Z" fill="white"/>
<path fill-rule="evenodd" clip-rule="evenodd" d="M24.3125 27.1458C24.3125 24.2118 26.691 21.8333 29.625 21.8333H45.2083C46.5775 21.8333 47.6875 22.9433 47.6875 24.3125V39.1875C47.6875 40.5567 46.5775 41.6667 45.2083 41.6667H29.625C27.8646 41.6667 26.4375 43.0938 26.4375 44.8542C26.4375 46.6145 27.8646 48.0417 29.625 48.0417H46.625C47.2118 48.0417 47.6875 48.5174 47.6875 49.1042C47.6875 49.6909 47.2118 50.1667 46.625 50.1667H29.625C26.691 50.1667 24.3125 47.7882 24.3125 44.8542V27.1458ZM26.4375 40.6037C27.3254 39.9369 28.429 39.5417 29.625 39.5417H45.2083C45.404 39.5417 45.5625 39.3831 45.5625 39.1875V24.3125C45.5625 24.1169 45.404 23.9583 45.2083 23.9583H29.625C27.8646 23.9583 26.4375 25.3854 26.4375 27.1458V40.6037Z" fill="white"/>
<path fill-rule="evenodd" clip-rule="evenodd" d="M44.8542 39.5417C45.4409 39.5417 45.9167 40.0174 45.9167 40.6042V49.1042C45.9167 49.691 45.4409 50.1667 44.8542 50.1667C44.2674 50.1667 43.7917 49.691 43.7917 49.1042V40.6042C43.7917 40.0174 44.2674 39.5417 44.8542 39.5417Z" fill="white"/>
</svg>
