<svg width="72" height="72" viewBox="0 0 72 72" fill="none" xmlns="http://www.w3.org/2000/svg">
<rect width="72" height="72" rx="36" fill="#292929"/>
<path fill-rule="evenodd" clip-rule="evenodd" d="M28.5625 22.8958C25.4329 22.8958 22.8958 25.4329 22.8958 28.5625V43.4375C22.8958 46.5671 25.4329 49.1042 28.5625 49.1042H43.4375C46.5671 49.1042 49.1042 46.5671 49.1042 43.4375V28.5625C49.1042 25.4329 46.5671 22.8958 43.4375 22.8958H28.5625ZM29.625 31.75C30.7986 31.75 31.75 30.7986 31.75 29.625C31.75 28.4514 30.7986 27.5 29.625 27.5C28.4514 27.5 27.5 28.4514 27.5 29.625C27.5 30.7986 28.4514 31.75 29.625 31.75ZM31.75 42.375C31.75 43.5486 30.7986 44.5 29.625 44.5C28.4514 44.5 27.5 43.5486 27.5 42.375C27.5 41.2014 28.4514 40.25 29.625 40.25C30.7986 40.25 31.75 41.2014 31.75 42.375ZM42.375 31.75C43.5486 31.75 44.5 30.7986 44.5 29.625C44.5 28.4514 43.5486 27.5 42.375 27.5C41.2014 27.5 40.25 28.4514 40.25 29.625C40.25 30.7986 41.2014 31.75 42.375 31.75ZM44.5 42.375C44.5 43.5486 43.5486 44.5 42.375 44.5C41.2014 44.5 40.25 43.5486 40.25 42.375C40.25 41.2014 41.2014 40.25 42.375 40.25C43.5486 40.25 44.5 41.2014 44.5 42.375ZM36 38.125C37.1736 38.125 38.125 37.1736 38.125 36C38.125 34.8264 37.1736 33.875 36 33.875C34.8264 33.875 33.875 34.8264 33.875 36C33.875 37.1736 34.8264 38.125 36 38.125Z" fill="white"/>
</svg>
