<svg width="72" height="72" viewBox="0 0 72 72" fill="none" xmlns="http://www.w3.org/2000/svg">
<rect width="72" height="72" rx="36" fill="#292929"/>
<path d="M36 29.625C37.9539 29.625 39.538 28.0393 39.538 26.0833H40.7788C41.4135 26.0833 42.0296 26.2968 42.5284 26.6895L48.2095 31.1617C48.822 31.6437 48.9299 32.5306 48.4512 33.1458L46.6729 35.4313C46.1873 36.0555 45.2853 36.1606 44.6694 35.6648L42.6222 34.0167V41.6667C42.6222 44.0139 40.7215 45.9167 38.3766 45.9167H33.7668C31.4219 45.9167 29.5211 44.0139 29.5211 41.6667V34.0167L27.3239 35.7053C26.7073 36.1792 25.8242 36.0664 25.3461 35.4527L23.5492 33.1459C23.07 32.5307 23.1779 31.6434 23.7905 31.1612L29.4709 26.6895C29.9698 26.2968 30.586 26.0833 31.2205 26.0833H32.4619C32.4619 28.0393 34.046 29.625 36 29.625Z" fill="white"/>
</svg>
