<svg width="31" height="72" viewBox="0 0 31 72" fill="none" xmlns="http://www.w3.org/2000/svg">
<rect width="72" height="72" rx="36" fill="#292929"/>
<path fill-rule="evenodd" clip-rule="evenodd" d="M43.7016 40.5448C46.4393 40.8066 49.1042 41.0613 49.1042 36C49.1042 28.7628 43.2372 22.8958 36 22.8958C28.7628 22.8958 22.8958 28.7628 22.8958 36C22.8958 43.2372 28.7628 49.1042 36 49.1042C41.7743 49.1042 40.6859 47.1561 39.5319 45.0907C38.8457 43.8625 38.1363 42.5927 38.8333 41.6667C39.9478 40.186 41.8415 40.367 43.7016 40.5448ZM38.125 28.9167C38.125 30.0903 37.1736 31.0417 36 31.0417C34.8264 31.0417 33.875 30.0903 33.875 28.9167C33.875 27.7431 34.8264 26.7917 36 26.7917C37.1736 26.7917 38.125 27.7431 38.125 28.9167ZM31.3958 33.875C31.3958 35.0486 30.4444 36 29.2708 36C28.0972 36 27.1458 35.0486 27.1458 33.875C27.1458 32.7014 28.0972 31.75 29.2708 31.75C30.4444 31.75 31.3958 32.7014 31.3958 33.875ZM42.7292 36C43.9027 36 44.8542 35.0486 44.8542 33.875C44.8542 32.7014 43.9027 31.75 42.7292 31.75C41.5556 31.75 40.6042 32.7014 40.6042 33.875C40.6042 35.0486 41.5556 36 42.7292 36Z" fill="white"/>
</svg>
