<svg width="72" height="72" viewBox="0 0 72 72" fill="none" xmlns="http://www.w3.org/2000/svg">
<rect width="72" height="72" rx="36" fill="#292929"/>
<path d="M32.0013 42.7479C32.5115 42.0468 32.8125 41.1834 32.8125 40.25C32.8125 37.9027 30.9097 36 28.5625 36C27.629 36 26.7658 36.3009 26.0646 36.8112L32.0013 42.7479Z" fill="white"/>
<path d="M30.9894 43.7394L25.0731 37.8231C24.5937 38.5112 24.3125 39.3477 24.3125 40.25C24.3125 42.5973 26.2153 44.5 28.5625 44.5C29.4647 44.5 30.3013 44.2188 30.9894 43.7394Z" fill="white"/>
<path d="M47.1526 42.3158C47.4933 41.7042 47.6875 40.9998 47.6875 40.25C47.6875 37.9027 45.7848 36 43.4375 36C42.6877 36 41.9833 36.1942 41.3717 36.5349L47.1526 42.3158Z" fill="white"/>
<path d="M46.2605 43.4272L40.2603 37.427C39.593 38.1777 39.1875 39.1665 39.1875 40.25C39.1875 42.5973 41.0902 44.5 43.4375 44.5C44.521 44.5 45.5098 44.0945 46.2605 43.4272Z" fill="white"/>
<path fill-rule="evenodd" clip-rule="evenodd" d="M28.5625 37.0625C26.8021 37.0625 25.375 38.4897 25.375 40.25C25.375 42.0103 26.8021 43.4375 28.5625 43.4375C30.3229 43.4375 31.75 42.0103 31.75 40.25C31.75 38.4897 30.3229 37.0625 28.5625 37.0625ZM23.25 40.25C23.25 37.3159 25.6285 34.9375 28.5625 34.9375C31.4965 34.9375 33.875 37.3159 33.875 40.25C33.875 43.1841 31.4965 45.5625 28.5625 45.5625C25.6285 45.5625 23.25 43.1841 23.25 40.25Z" fill="white"/>
<path fill-rule="evenodd" clip-rule="evenodd" d="M43.4375 37.0625C41.6772 37.0625 40.25 38.4897 40.25 40.25C40.25 42.0103 41.6772 43.4375 43.4375 43.4375C45.1978 43.4375 46.625 42.0103 46.625 40.25C46.625 38.4897 45.1978 37.0625 43.4375 37.0625ZM38.125 40.25C38.125 37.3159 40.5034 34.9375 43.4375 34.9375C46.3716 34.9375 48.75 37.3159 48.75 40.25C48.75 43.1841 46.3716 45.5625 43.4375 45.5625C40.5034 45.5625 38.125 43.1841 38.125 40.25Z" fill="white"/>
<path fill-rule="evenodd" clip-rule="evenodd" d="M31.75 40.25C31.75 39.6632 32.2257 39.1875 32.8125 39.1875H39.1875C39.7743 39.1875 40.25 39.6632 40.25 40.25C40.25 40.8368 39.7743 41.3125 39.1875 41.3125H32.8125C32.2257 41.3125 31.75 40.8368 31.75 40.25Z" fill="white"/>
<path fill-rule="evenodd" clip-rule="evenodd" d="M28.4709 28.4098C29.4222 27.3066 30.6552 26.4375 32.2452 26.4375C32.832 26.4375 33.3076 26.9132 33.3076 27.5C33.3076 28.0868 32.832 28.5625 32.2452 28.5625C31.5149 28.5625 30.8181 28.9418 30.0802 29.7975C29.3341 30.6627 28.6598 31.8873 27.9861 33.2971C27.719 33.8559 27.4413 34.4687 27.1605 35.0887C26.7735 35.9426 26.3806 36.8101 26.0008 37.5681C25.6056 38.3572 25.1742 39.1388 24.6866 39.8195C24.745 39.9511 24.7774 40.0967 24.7774 40.25C24.7774 40.8368 24.3017 41.3125 23.7149 41.3125H22.8959C22.4522 41.3125 22.0552 41.0368 21.9003 40.621C21.7453 40.2052 21.8651 39.737 22.2006 39.4466C22.8261 38.9053 23.4415 37.9329 24.1009 36.6164C24.4795 35.8606 24.8266 35.0922 25.187 34.2945C25.466 33.6767 25.7531 33.0414 26.0687 32.3808C26.7533 30.9484 27.5277 29.5036 28.4709 28.4098ZM38.6924 27.5C38.6924 26.9132 39.1681 26.4375 39.7549 26.4375C41.3449 26.4375 42.578 27.3066 43.5293 28.4098C44.4724 29.5036 45.2469 30.9484 45.9314 32.3808C46.247 33.0414 46.534 33.6767 46.8131 34.2945C47.1735 35.0922 47.5206 35.8606 47.8993 36.6164C48.5586 37.9329 49.174 38.9053 49.7995 39.4466C50.1351 39.737 50.2548 40.2052 50.0998 40.621C49.945 41.0368 49.5479 41.3125 49.1042 41.3125H48.2852C47.6984 41.3125 47.2227 40.8368 47.2227 40.25C47.2227 40.0967 47.2551 39.9511 47.3135 39.8195C46.8259 39.1388 46.3945 38.3572 45.9993 37.5681C45.6196 36.8101 45.2266 35.9426 44.8396 35.0887C44.5588 34.4687 44.2811 33.8559 44.0141 33.2971C43.3403 31.8873 42.666 30.6627 41.92 29.7975C41.182 28.9418 40.4852 28.5625 39.7549 28.5625C39.1681 28.5625 38.6924 28.0868 38.6924 27.5Z" fill="white"/>
</svg>
