<svg width="31" height="30" viewBox="0 0 31 30" fill="none" xmlns="http://www.w3.org/2000/svg">
<path d="M26.5375 10.0126L18.35 3.46258C16.75 2.18758 14.25 2.17508 12.6625 3.45008L4.47501 10.0126C3.30001 10.9501 2.58751 12.8251 2.83751 14.3001L4.41251 23.7251C4.77501 25.8376 6.73751 27.5001 8.87501 27.5001H22.125C24.2375 27.5001 26.2375 25.8001 26.6 23.7126L28.175 14.2876C28.4 12.8251 27.6875 10.9501 26.5375 10.0126ZM16.4375 22.5001C16.4375 23.0126 16.0125 23.4376 15.5 23.4376C14.9875 23.4376 14.5625 23.0126 14.5625 22.5001V18.7501C14.5625 18.2376 14.9875 17.8126 15.5 17.8126C16.0125 17.8126 16.4375 18.2376 16.4375 18.7501V22.5001Z" fill="#292929"/>
</svg>
