<svg width="18" height="22" viewBox="0 0 18 22" fill="none" xmlns="http://www.w3.org/2000/svg">
<path d="M17.6201 7.45031C16.5701 2.83031 12.5401 0.750305 9.0001 0.750305C9.0001 0.750305 9.0001 0.750305 8.9901 0.750305C5.4601 0.750305 1.4201 2.82031 0.370095 7.44031C-0.799905 12.6003 2.3601 16.9703 5.2201 19.7203C6.2801 20.7403 7.6401 21.2503 9.0001 21.2503C10.3601 21.2503 11.7201 20.7403 12.7701 19.7203C15.6301 16.9703 18.7901 12.6103 17.6201 7.45031ZM9.0001 12.4603C7.2601 12.4603 5.8501 11.0503 5.8501 9.31031C5.8501 7.57031 7.2601 6.16031 9.0001 6.16031C10.7401 6.16031 12.1501 7.57031 12.1501 9.31031C12.1501 11.0503 10.7401 12.4603 9.0001 12.4603Z" fill="#292929"/>
</svg>
